<svg width="400" height="363" viewBox="0 0 400 363" fill="none" xmlns="http://www.w3.org/2000/svg">
<path d="M285.697 107.837L199.815 193.719" stroke="#0051F5" stroke-width="8.58814"/>
<path d="M113.934 107.836L199.815 21.9551" stroke="#0051F5" stroke-width="8.58814"/>
<path d="M285.697 21.9551L230.408 76.0924L167.714 138.832L113.934 193.718" stroke="#0051F5" stroke-width="8.38794"/>
<rect x="99.7634" y="179.548" width="27.9115" height="27.9115" rx="2.14703" fill="#FF6B40"/>
<rect x="92.4636" y="86.3657" width="42.9407" height="42.9407" rx="4.29407" fill="#FF6B40"/>
<rect x="271.526" y="7.78467" width="27.9115" height="27.9115" rx="2.14703" fill="#FF6B40"/>
<rect x="264.226" y="86.3657" width="42.9407" height="42.9407" rx="4.29407" fill="#FF6B40"/>
<rect x="178.774" y="0.485352" width="42.9407" height="42.9407" rx="4.29407" fill="#FF6B40"/>
<rect x="178.774" y="172.247" width="42.9407" height="42.9407" rx="4.29407" fill="#FF6B40"/>
<rect x="155.157" y="62.7476" width="90.1755" height="90.1755" rx="44.3862" fill="#0051F5" fill-opacity="0.5"/>
<rect x="174.48" y="82.0723" width="51.5288" height="51.5288" rx="25.5133" fill="#0051F5"/>
<path d="M36.5522 296.02C35.8274 296.866 34.9819 297.591 34.0156 298.194C33.0493 298.798 32.0226 299.312 30.9355 299.735C29.8484 300.157 28.7311 300.459 27.5836 300.64C26.4965 300.882 25.4698 301.003 24.5035 301.003C21.2421 301.003 18.2526 300.52 15.5349 299.553C12.8775 298.527 10.5825 297.107 8.64988 295.296C6.71725 293.423 5.20739 291.219 4.12029 288.682C3.09358 286.146 2.58023 283.337 2.58023 280.257C2.58023 277.117 3.15397 274.278 4.30147 271.742C5.44897 269.145 7.01923 266.94 9.01225 265.128C11.0053 263.317 13.3305 261.928 15.9878 260.961C18.7056 259.995 21.6347 259.512 24.7752 259.512C28.0365 259.512 31.0261 259.995 33.7438 260.961C36.522 261.928 38.8774 263.347 40.81 265.219C42.803 267.091 44.3431 269.416 45.4302 272.195C46.5173 274.973 47.0608 278.174 47.0608 281.797V300.188H36.5522V296.02ZM13.3607 280.257C13.3607 282.009 13.6626 283.579 14.2666 284.968C14.8705 286.297 15.6858 287.444 16.7126 288.411C17.7393 289.316 18.9472 290.011 20.3362 290.494C21.7253 290.977 23.205 291.219 24.7752 291.219C26.4059 291.219 27.9157 291.008 29.3048 290.585C30.6939 290.102 31.9018 289.407 32.9285 288.501C34.0156 287.595 34.8611 286.448 35.4651 285.059C36.069 283.67 36.371 282.069 36.371 280.257C36.371 278.627 36.069 277.147 35.4651 275.818C34.8611 274.429 34.0156 273.282 32.9285 272.376C31.9018 271.409 30.6939 270.655 29.3048 270.111C27.9157 269.567 26.4059 269.296 24.7752 269.296C23.205 269.296 21.7253 269.537 20.3362 270.02C18.9472 270.504 17.7393 271.228 16.7126 272.195C15.6858 273.101 14.8705 274.248 14.2666 275.637C13.6626 276.966 13.3607 278.506 13.3607 280.257ZM106.992 300.188V279.986C106.992 276.845 106.388 274.278 105.18 272.285C103.972 270.232 102.009 269.205 99.2913 269.205C96.5735 269.205 94.6107 270.081 93.4028 271.832C92.2553 273.523 91.6816 275.909 91.6816 278.989V300.188H81.0823V278.989C81.0823 275.909 80.5086 273.523 79.3611 271.832C78.2136 270.081 76.2809 269.205 73.5632 269.205C70.8454 269.205 68.8524 270.232 67.5841 272.285C66.3762 274.278 65.7723 276.845 65.7723 279.986V300.188H55.173V281.344C55.173 279.895 55.2032 278.415 55.2636 276.905C55.324 275.396 55.5052 274.037 55.8072 272.829C56.7131 268.541 58.7061 265.249 61.7862 262.954C64.8664 260.659 68.792 259.512 73.5632 259.512C76.5225 259.512 79.1195 260.146 81.3541 261.414C83.5887 262.622 85.2797 264.313 86.4272 266.487C87.5747 264.313 89.2658 262.622 91.5004 261.414C93.735 260.146 96.3319 259.512 99.2913 259.512C104.062 259.512 107.988 260.659 111.068 262.954C114.209 265.249 116.202 268.541 117.047 272.829C117.289 274.037 117.44 275.396 117.5 276.905C117.561 278.415 117.591 279.895 117.591 281.344V300.188H106.992ZM136.37 313.052H125.771V282.341C125.771 278.476 126.315 275.124 127.402 272.285C128.549 269.447 130.089 267.091 132.022 265.219C134.015 263.286 136.37 261.867 139.088 260.961C141.806 259.995 144.795 259.512 148.057 259.512C151.257 259.512 154.217 259.995 156.935 260.961C159.652 261.928 161.978 263.317 163.91 265.128C165.903 266.94 167.443 269.145 168.53 271.742C169.678 274.278 170.252 277.117 170.252 280.257C170.252 283.277 169.708 286.055 168.621 288.592C167.594 291.128 166.115 293.333 164.182 295.205C162.31 297.017 160.015 298.436 157.297 299.463C154.64 300.489 151.71 301.003 148.51 301.003C146.335 301.003 144.131 300.61 141.896 299.825C139.662 298.98 137.82 297.711 136.37 296.02V313.052ZM159.471 280.257C159.471 278.506 159.169 276.966 158.565 275.637C157.961 274.248 157.146 273.101 156.119 272.195C155.093 271.228 153.885 270.504 152.496 270.02C151.107 269.537 149.627 269.296 148.057 269.296C146.426 269.296 144.916 269.567 143.527 270.111C142.138 270.655 140.9 271.409 139.813 272.376C138.786 273.282 137.971 274.429 137.367 275.818C136.763 277.147 136.461 278.627 136.461 280.257C136.461 282.069 136.763 283.67 137.367 285.059C137.971 286.448 138.786 287.595 139.813 288.501C140.9 289.407 142.138 290.102 143.527 290.585C144.916 291.008 146.426 291.219 148.057 291.219C149.627 291.219 151.107 290.977 152.496 290.494C153.885 290.011 155.093 289.316 156.119 288.411C157.146 287.444 157.961 286.297 158.565 284.968C159.169 283.579 159.471 282.009 159.471 280.257ZM210.039 296.02C209.314 296.866 208.469 297.591 207.503 298.194C206.536 298.798 205.51 299.312 204.422 299.735C203.335 300.157 202.218 300.459 201.071 300.64C199.983 300.882 198.957 301.003 197.99 301.003C194.729 301.003 191.74 300.52 189.022 299.553C186.364 298.527 184.069 297.107 182.137 295.296C180.204 293.423 178.694 291.219 177.607 288.682C176.581 286.146 176.067 283.337 176.067 280.257C176.067 277.117 176.641 274.278 177.788 271.742C178.936 269.145 180.506 266.94 182.499 265.128C184.492 263.317 186.817 261.928 189.475 260.961C192.193 259.995 195.122 259.512 198.262 259.512C201.523 259.512 204.513 259.995 207.231 260.961C210.009 261.928 212.364 263.347 214.297 265.219C216.29 267.091 217.83 269.416 218.917 272.195C220.004 274.973 220.548 278.174 220.548 281.797V300.188H210.039V296.02ZM186.848 280.257C186.848 282.009 187.15 283.579 187.754 284.968C188.357 286.297 189.173 287.444 190.199 288.411C191.226 289.316 192.434 290.011 193.823 290.494C195.212 290.977 196.692 291.219 198.262 291.219C199.893 291.219 201.403 291.008 202.792 290.585C204.181 290.102 205.389 289.407 206.415 288.501C207.503 287.595 208.348 286.448 208.952 285.059C209.556 283.67 209.858 282.069 209.858 280.257C209.858 278.627 209.556 277.147 208.952 275.818C208.348 274.429 207.503 273.282 206.415 272.376C205.389 271.409 204.181 270.655 202.792 270.111C201.403 269.567 199.893 269.296 198.262 269.296C196.692 269.296 195.212 269.537 193.823 270.02C192.434 270.504 191.226 271.228 190.199 272.195C189.173 273.101 188.357 274.248 187.754 275.637C187.15 276.966 186.848 278.506 186.848 280.257ZM249.315 259.512C251.429 259.512 253.573 259.753 255.747 260.236C257.982 260.72 259.884 261.475 261.454 262.501L257.196 271.47C254.841 270.02 252.244 269.296 249.406 269.296C246.144 269.296 243.638 270.353 241.886 272.466C240.135 274.52 239.259 277.419 239.259 281.163V300.188H228.66V281.435C228.66 278.113 229.113 275.124 230.019 272.466C230.925 269.749 232.253 267.454 234.005 265.581C235.756 263.649 237.9 262.169 240.437 261.142C243.034 260.055 245.993 259.512 249.315 259.512ZM260.555 280.257C260.555 277.177 261.098 274.369 262.185 271.832C263.333 269.296 264.903 267.121 266.896 265.31C268.889 263.437 271.245 262.018 273.962 261.052C276.68 260.025 279.639 259.512 282.84 259.512C286.041 259.512 289.001 260.025 291.718 261.052C294.436 262.018 296.791 263.437 298.784 265.31C300.777 267.121 302.318 269.296 303.405 271.832C304.552 274.369 305.126 277.177 305.126 280.257C305.126 283.337 304.552 286.146 303.405 288.682C302.318 291.219 300.777 293.423 298.784 295.296C296.791 297.107 294.436 298.527 291.718 299.553C289.001 300.52 286.041 301.003 282.84 301.003C279.639 301.003 276.68 300.52 273.962 299.553C271.245 298.527 268.889 297.107 266.896 295.296C264.903 293.423 263.333 291.219 262.185 288.682C261.098 286.146 260.555 283.337 260.555 280.257ZM294.345 280.257C294.345 276.815 293.228 274.127 290.994 272.195C288.819 270.262 286.102 269.296 282.84 269.296C281.21 269.296 279.7 269.537 278.311 270.02C276.922 270.504 275.714 271.228 274.687 272.195C273.66 273.101 272.845 274.248 272.241 275.637C271.637 276.966 271.335 278.506 271.335 280.257C271.335 282.009 271.637 283.579 272.241 284.968C272.845 286.297 273.66 287.444 274.687 288.411C275.714 289.316 276.922 290.011 278.311 290.494C279.7 290.977 281.21 291.219 282.84 291.219C286.102 291.219 288.819 290.253 290.994 288.32C293.228 286.387 294.345 283.7 294.345 280.257ZM343.22 260.327V300.188H332.621V260.327H343.22ZM343.22 246.014V255.073H332.621V246.014H343.22ZM383.878 247.463H394.477V278.627C394.477 282.311 393.903 285.542 392.756 288.32C391.608 291.098 390.038 293.423 388.045 295.296C386.052 297.168 383.697 298.587 380.979 299.553C378.261 300.52 375.332 301.003 372.191 301.003C369.051 301.003 366.122 300.52 363.404 299.553C360.747 298.587 358.421 297.198 356.428 295.386C354.435 293.574 352.865 291.4 351.718 288.864C350.57 286.327 349.996 283.458 349.996 280.257C349.996 277.177 350.51 274.369 351.536 271.832C352.563 269.296 354.013 267.121 355.885 265.31C357.818 263.498 360.113 262.079 362.77 261.052C365.488 260.025 368.507 259.512 371.829 259.512C374.003 259.512 376.177 259.904 378.352 260.689C380.526 261.475 382.368 262.743 383.878 264.494V247.463ZM360.777 280.257C360.777 282.009 361.079 283.579 361.683 284.968C362.287 286.297 363.102 287.444 364.129 288.411C365.155 289.316 366.363 290.011 367.752 290.494C369.142 290.977 370.621 291.219 372.191 291.219C373.822 291.219 375.332 290.947 376.721 290.404C378.11 289.86 379.318 289.135 380.345 288.229C381.432 287.263 382.277 286.116 382.881 284.787C383.485 283.398 383.787 281.888 383.787 280.257C383.787 278.445 383.485 276.845 382.881 275.456C382.277 274.067 381.432 272.919 380.345 272.013C379.318 271.108 378.11 270.443 376.721 270.02C375.332 269.537 373.822 269.296 372.191 269.296C370.621 269.296 369.142 269.537 367.752 270.02C366.363 270.504 365.155 271.228 364.129 272.195C363.102 273.101 362.287 274.248 361.683 275.637C361.079 276.966 360.777 278.506 360.777 280.257Z" fill="#0051F5"/>
<path d="M131.045 337.853C132.1 337.211 133.305 336.89 134.653 336.89C136.102 336.89 137.399 337.253 138.556 337.98C139.709 338.708 140.623 339.732 141.285 341.047C141.952 342.367 142.284 343.895 142.284 345.64C142.284 347.361 141.952 348.9 141.285 350.251C140.616 351.602 139.704 352.651 138.539 353.396C137.375 354.142 136.08 354.517 134.653 354.517C133.264 354.517 132.044 354.196 131 353.554C129.955 352.911 129.166 352.087 128.637 351.093V354.238H125.965V331.188H128.637V340.344C129.19 339.326 129.989 338.495 131.045 337.853ZM138.819 342.271C138.328 341.313 137.671 340.586 136.838 340.089C136.005 339.592 135.091 339.344 134.092 339.344C133.117 339.344 132.21 339.598 131.382 340.107C130.547 340.616 129.886 341.356 129.383 342.319C128.882 343.283 128.637 344.404 128.637 345.67C128.637 346.961 128.887 348.082 129.383 349.051C129.881 350.015 130.547 350.754 131.382 351.263C132.215 351.772 133.117 352.026 134.092 352.026C135.091 352.026 136.005 351.772 136.838 351.263C137.671 350.754 138.328 350.015 138.819 349.051C139.309 348.088 139.555 346.949 139.555 345.64C139.555 344.349 139.309 343.228 138.819 342.271Z" fill="black" fill-opacity="0.3"/>
<path d="M159.655 337.167L149.973 362.272H147.216L150.385 354.049L143.899 337.167H146.862L151.908 350.996L156.897 337.167H159.655Z" fill="black" fill-opacity="0.3"/>
<path d="M190.14 332.43H168.542V335.557H190.14V332.43Z" fill="black" fill-opacity="0.3"/>
<path d="M190.14 338.69H168.542V341.817H190.14V338.69Z" fill="black" fill-opacity="0.3"/>
<path d="M190.14 344.944H168.542V348.077H190.14V344.944Z" fill="black" fill-opacity="0.3"/>
<path d="M190.14 351.198H168.542V354.331H190.14V351.198Z" fill="black" fill-opacity="0.3"/>
<path d="M209.737 350.149C211.347 350.149 212.524 348.986 212.524 347.477C212.524 346.005 211.376 344.902 209.703 344.902H205.61V350.149H209.737ZM208.751 341.163C210.115 341.163 211.073 340.187 211.073 338.836C211.073 337.551 210.108 336.57 208.779 336.57H205.617V341.157H208.751V341.163ZM200.941 332.431H209.525C212.962 332.431 215.691 334.788 215.691 338.024C215.691 340.127 214.668 341.793 212.933 342.417C215.782 342.92 217.272 345.12 217.272 347.853C217.272 351.561 214.48 354.33 210.702 354.33H200.941V332.431Z" fill="black" fill-opacity="0.3"/>
<path d="M227.615 332.431H222.843V354.33H227.615V332.431Z" fill="black" fill-opacity="0.3"/>
<path d="M244.907 332.086C248.407 332.086 251.506 333.656 253.648 336.164L250.394 338.958C249.03 337.419 247.078 336.473 244.907 336.473C241.067 336.473 238.063 339.425 238.063 343.388C238.063 347.345 241.067 350.265 244.907 350.265C247.078 350.265 249.063 349.326 250.423 347.75L253.677 350.544C251.535 353.095 248.407 354.658 244.907 354.658C238.492 354.658 233.286 349.914 233.286 343.388C233.286 336.861 238.492 332.086 244.907 332.086Z" fill="black" fill-opacity="0.3"/>
<path d="M258.699 332.431H273.449V336.83H263.472V340.945H272.797V345.247H263.472V349.925H273.666V354.33H258.699V332.431Z" fill="black" fill-opacity="0.3"/>
</svg>
