<svg width="400" height="134" viewBox="0 0 400 134" fill="none" xmlns="http://www.w3.org/2000/svg">
<path d="M36.5522 67.3181C35.8274 68.1637 34.9819 68.8884 34.0156 69.4923C33.0493 70.0963 32.0226 70.6096 30.9355 71.0324C29.8484 71.4552 28.7311 71.7571 27.5836 71.9383C26.4965 72.1799 25.4698 72.3007 24.5035 72.3007C21.2421 72.3007 18.2526 71.8175 15.5349 70.8512C12.8775 69.8245 10.5825 68.4052 8.64988 66.5934C6.71725 64.7212 5.20739 62.5168 4.12029 59.9802C3.09358 57.4436 2.58023 54.6353 2.58023 51.5551C2.58023 48.4146 3.15397 45.5761 4.30147 43.0395C5.44897 40.4425 7.01923 38.2381 9.01225 36.4263C11.0053 34.6145 13.3305 33.2254 15.9878 32.2591C18.7056 31.2928 21.6347 30.8096 24.7752 30.8096C28.0365 30.8096 31.0261 31.2928 33.7438 32.2591C36.522 33.2254 38.8774 34.6447 40.81 36.5169C42.803 38.3891 44.3431 40.7143 45.4302 43.4925C46.5173 46.2706 47.0608 49.4715 47.0608 53.0952V71.4854H36.5522V67.3181ZM13.3607 51.5551C13.3607 53.3066 13.6626 54.8768 14.2666 56.2659C14.8705 57.5946 15.6858 58.7421 16.7126 59.7084C17.7393 60.6143 18.9472 61.3089 20.3362 61.792C21.7253 62.2752 23.205 62.5168 24.7752 62.5168C26.4059 62.5168 27.9157 62.3054 29.3048 61.8826C30.6939 61.3995 31.9018 60.7049 32.9285 59.799C34.0156 58.8931 34.8611 57.7456 35.4651 56.3565C36.069 54.9674 36.371 53.367 36.371 51.5551C36.371 49.9245 36.069 48.4448 35.4651 47.1161C34.8611 45.7271 34.0156 44.5796 32.9285 43.6737C31.9018 42.7073 30.6939 41.9524 29.3048 41.4089C27.9157 40.8653 26.4059 40.5935 24.7752 40.5935C23.205 40.5935 21.7253 40.8351 20.3362 41.3183C18.9472 41.8014 17.7393 42.5262 16.7126 43.4925C15.6858 44.3984 14.8705 45.5459 14.2666 46.935C13.6626 48.2636 13.3607 49.8037 13.3607 51.5551ZM106.992 71.4854V51.2834C106.992 48.1429 106.388 45.5761 105.18 43.5831C103.972 41.5296 102.009 40.5029 99.2913 40.5029C96.5735 40.5029 94.6107 41.3787 93.4028 43.1301C92.2553 44.8211 91.6816 47.2067 91.6816 50.2869V71.4854H81.0823V50.2869C81.0823 47.2067 80.5086 44.8211 79.3611 43.1301C78.2136 41.3787 76.2809 40.5029 73.5632 40.5029C70.8454 40.5029 68.8524 41.5296 67.5841 43.5831C66.3762 45.5761 65.7723 48.1429 65.7723 51.2834V71.4854H55.173V52.6422C55.173 51.1928 55.2032 49.7131 55.2636 48.2032C55.324 46.6934 55.5052 45.3345 55.8072 44.1266C56.7131 39.8386 58.7061 36.5471 61.7862 34.2521C64.8664 31.9571 68.792 30.8096 73.5632 30.8096C76.5225 30.8096 79.1195 31.4438 81.3541 32.712C83.5887 33.9199 85.2797 35.611 86.4272 37.7852C87.5747 35.611 89.2658 33.9199 91.5004 32.712C93.735 31.4438 96.3319 30.8096 99.2913 30.8096C104.062 30.8096 107.988 31.9571 111.068 34.2521C114.209 36.5471 116.202 39.8386 117.047 44.1266C117.289 45.3345 117.44 46.6934 117.5 48.2032C117.561 49.7131 117.591 51.1928 117.591 52.6422V71.4854H106.992ZM136.37 84.3494H125.771V53.6388C125.771 49.7735 126.315 46.4216 127.402 43.5831C128.549 40.7445 130.089 38.3891 132.022 36.5169C134.015 34.5843 136.37 33.165 139.088 32.2591C141.806 31.2928 144.795 30.8096 148.057 30.8096C151.257 30.8096 154.217 31.2928 156.935 32.2591C159.652 33.2254 161.978 34.6145 163.91 36.4263C165.903 38.2381 167.443 40.4425 168.53 43.0395C169.678 45.5761 170.252 48.4146 170.252 51.5551C170.252 54.5749 169.708 57.353 168.621 59.8896C167.594 62.4262 166.115 64.6306 164.182 66.5028C162.31 68.3146 160.015 69.7339 157.297 70.7606C154.64 71.7873 151.71 72.3007 148.51 72.3007C146.335 72.3007 144.131 71.9081 141.896 71.123C139.662 70.2775 137.82 69.0092 136.37 67.3181V84.3494ZM159.471 51.5551C159.471 49.8037 159.169 48.2636 158.565 46.935C157.961 45.5459 157.146 44.3984 156.119 43.4925C155.093 42.5262 153.885 41.8014 152.496 41.3183C151.107 40.8351 149.627 40.5935 148.057 40.5935C146.426 40.5935 144.916 40.8653 143.527 41.4089C142.138 41.9524 140.9 42.7073 139.813 43.6737C138.786 44.5796 137.971 45.7271 137.367 47.1161C136.763 48.4448 136.461 49.9245 136.461 51.5551C136.461 53.367 136.763 54.9674 137.367 56.3565C137.971 57.7456 138.786 58.8931 139.813 59.799C140.9 60.7049 142.138 61.3995 143.527 61.8826C144.916 62.3054 146.426 62.5168 148.057 62.5168C149.627 62.5168 151.107 62.2752 152.496 61.792C153.885 61.3089 155.093 60.6143 156.119 59.7084C157.146 58.7421 157.961 57.5946 158.565 56.2659C159.169 54.8768 159.471 53.3066 159.471 51.5551ZM210.039 67.3181C209.314 68.1637 208.469 68.8884 207.503 69.4923C206.536 70.0963 205.51 70.6096 204.422 71.0324C203.335 71.4552 202.218 71.7571 201.071 71.9383C199.983 72.1799 198.957 72.3007 197.99 72.3007C194.729 72.3007 191.74 71.8175 189.022 70.8512C186.364 69.8245 184.069 68.4052 182.137 66.5934C180.204 64.7212 178.694 62.5168 177.607 59.9802C176.581 57.4436 176.067 54.6353 176.067 51.5551C176.067 48.4146 176.641 45.5761 177.788 43.0395C178.936 40.4425 180.506 38.2381 182.499 36.4263C184.492 34.6145 186.817 33.2254 189.475 32.2591C192.193 31.2928 195.122 30.8096 198.262 30.8096C201.523 30.8096 204.513 31.2928 207.231 32.2591C210.009 33.2254 212.364 34.6447 214.297 36.5169C216.29 38.3891 217.83 40.7143 218.917 43.4925C220.004 46.2706 220.548 49.4715 220.548 53.0952V71.4854H210.039V67.3181ZM186.848 51.5551C186.848 53.3066 187.15 54.8768 187.754 56.2659C188.357 57.5946 189.173 58.7421 190.199 59.7084C191.226 60.6143 192.434 61.3089 193.823 61.792C195.212 62.2752 196.692 62.5168 198.262 62.5168C199.893 62.5168 201.403 62.3054 202.792 61.8826C204.181 61.3995 205.389 60.7049 206.415 59.799C207.503 58.8931 208.348 57.7456 208.952 56.3565C209.556 54.9674 209.858 53.367 209.858 51.5551C209.858 49.9245 209.556 48.4448 208.952 47.1161C208.348 45.7271 207.503 44.5796 206.415 43.6737C205.389 42.7073 204.181 41.9524 202.792 41.4089C201.403 40.8653 199.893 40.5935 198.262 40.5935C196.692 40.5935 195.212 40.8351 193.823 41.3183C192.434 41.8014 191.226 42.5262 190.199 43.4925C189.173 44.3984 188.357 45.5459 187.754 46.935C187.15 48.2636 186.848 49.8037 186.848 51.5551ZM249.315 30.8096C251.429 30.8096 253.573 31.0512 255.747 31.5343C257.982 32.0175 259.884 32.7724 261.454 33.7991L257.196 42.7677C254.841 41.3183 252.244 40.5935 249.406 40.5935C246.144 40.5935 243.638 41.6504 241.886 43.7642C240.135 45.8177 239.259 48.7166 239.259 52.4611V71.4854H228.66V52.7328C228.66 49.4111 229.113 46.4216 230.019 43.7642C230.925 41.0465 232.253 38.7515 234.005 36.8793C235.756 34.9466 237.9 33.467 240.437 32.4403C243.034 31.3532 245.993 30.8096 249.315 30.8096ZM260.555 51.5551C260.555 48.475 261.098 45.6667 262.185 43.1301C263.333 40.5935 264.903 38.4193 266.896 36.6075C268.889 34.7353 271.245 33.316 273.962 32.3497C276.68 31.323 279.639 30.8096 282.84 30.8096C286.041 30.8096 289.001 31.323 291.718 32.3497C294.436 33.316 296.791 34.7353 298.784 36.6075C300.777 38.4193 302.318 40.5935 303.405 43.1301C304.552 45.6667 305.126 48.475 305.126 51.5551C305.126 54.6353 304.552 57.4436 303.405 59.9802C302.318 62.5168 300.777 64.7212 298.784 66.5934C296.791 68.4052 294.436 69.8245 291.718 70.8512C289.001 71.8175 286.041 72.3007 282.84 72.3007C279.639 72.3007 276.68 71.8175 273.962 70.8512C271.245 69.8245 268.889 68.4052 266.896 66.5934C264.903 64.7212 263.333 62.5168 262.185 59.9802C261.098 57.4436 260.555 54.6353 260.555 51.5551ZM294.345 51.5551C294.345 48.1127 293.228 45.4251 290.994 43.4925C288.819 41.5598 286.102 40.5935 282.84 40.5935C281.21 40.5935 279.7 40.8351 278.311 41.3183C276.922 41.8014 275.714 42.5262 274.687 43.4925C273.66 44.3984 272.845 45.5459 272.241 46.935C271.637 48.2636 271.335 49.8037 271.335 51.5551C271.335 53.3066 271.637 54.8768 272.241 56.2659C272.845 57.5946 273.66 58.7421 274.687 59.7084C275.714 60.6143 276.922 61.3089 278.311 61.792C279.7 62.2752 281.21 62.5168 282.84 62.5168C286.102 62.5168 288.819 61.5504 290.994 59.6178C293.228 57.6852 294.345 54.9976 294.345 51.5551ZM343.22 31.6249V71.4854H332.621V31.6249H343.22ZM343.22 17.3114V26.3706H332.621V17.3114H343.22ZM383.878 18.7609H394.477V49.9245C394.477 53.6086 393.903 56.8397 392.756 59.6178C391.608 62.396 390.038 64.7212 388.045 66.5934C386.052 68.4656 383.697 69.8849 380.979 70.8512C378.261 71.8175 375.332 72.3007 372.191 72.3007C369.051 72.3007 366.122 71.8175 363.404 70.8512C360.747 69.8849 358.421 68.4958 356.428 66.684C354.435 64.8721 352.865 62.6979 351.718 60.1614C350.57 57.6248 349.996 54.7561 349.996 51.5551C349.996 48.475 350.51 45.6667 351.536 43.1301C352.563 40.5935 354.013 38.4193 355.885 36.6075C357.818 34.7957 360.113 33.3764 362.77 32.3497C365.488 31.323 368.507 30.8096 371.829 30.8096C374.003 30.8096 376.177 31.2022 378.352 31.9873C380.526 32.7724 382.368 34.0407 383.878 35.7922V18.7609ZM360.777 51.5551C360.777 53.3066 361.079 54.8768 361.683 56.2659C362.287 57.5946 363.102 58.7421 364.129 59.7084C365.155 60.6143 366.363 61.3089 367.752 61.792C369.142 62.2752 370.621 62.5168 372.191 62.5168C373.822 62.5168 375.332 62.245 376.721 61.7014C378.11 61.1579 379.318 60.4331 380.345 59.5272C381.432 58.5609 382.277 57.4134 382.881 56.0847C383.485 54.6957 383.787 53.1858 383.787 51.5551C383.787 49.7433 383.485 48.1429 382.881 46.7538C382.277 45.3647 381.432 44.2172 380.345 43.3113C379.318 42.4054 378.11 41.741 376.721 41.3183C375.332 40.8351 373.822 40.5935 372.191 40.5935C370.621 40.5935 369.142 40.8351 367.752 41.3183C366.363 41.8014 365.155 42.5262 364.129 43.4925C363.102 44.3984 362.287 45.5459 361.683 46.935C361.079 48.2636 360.777 49.8037 360.777 51.5551Z" fill="#0051F5"/>
<path d="M131.045 109.151C132.099 108.509 133.305 108.188 134.653 108.188C136.102 108.188 137.399 108.551 138.556 109.278C139.709 110.005 140.623 111.029 141.285 112.344C141.952 113.665 142.284 115.192 142.284 116.938C142.284 118.659 141.952 120.198 141.285 121.549C140.616 122.9 139.704 123.949 138.539 124.694C137.375 125.439 136.08 125.815 134.653 125.815C133.264 125.815 132.044 125.494 131 124.851C129.955 124.209 129.166 123.385 128.637 122.391V125.536H125.965V102.485H128.637V111.642C129.19 110.624 129.989 109.793 131.045 109.151ZM138.818 113.569C138.328 112.611 137.671 111.884 136.838 111.387C136.005 110.89 135.091 110.642 134.092 110.642C133.117 110.642 132.21 110.896 131.382 111.405C130.547 111.914 129.886 112.654 129.383 113.617C128.882 114.58 128.637 115.702 128.637 116.968C128.637 118.259 128.887 119.38 129.383 120.349C129.881 121.312 130.547 122.052 131.382 122.561C132.215 123.07 133.117 123.324 134.092 123.324C135.091 123.324 136.005 123.07 136.838 122.561C137.671 122.052 138.328 121.312 138.818 120.349C139.309 119.386 139.555 118.247 139.555 116.938C139.555 115.647 139.309 114.526 138.818 113.569Z" fill="black" fill-opacity="0.3"/>
<path d="M159.655 108.465L149.973 133.57H147.216L150.385 125.347L143.899 108.465H146.862L151.908 122.293L156.897 108.465H159.655Z" fill="black" fill-opacity="0.3"/>
<path d="M190.14 103.728H168.542V106.855H190.14V103.728Z" fill="black" fill-opacity="0.3"/>
<path d="M190.14 109.988H168.542V113.115H190.14V109.988Z" fill="black" fill-opacity="0.3"/>
<path d="M190.14 116.242H168.542V119.375H190.14V116.242Z" fill="black" fill-opacity="0.3"/>
<path d="M190.14 122.496H168.542V125.629H190.14V122.496Z" fill="black" fill-opacity="0.3"/>
<path d="M209.737 121.447C211.347 121.447 212.524 120.284 212.524 118.775C212.524 117.302 211.376 116.2 209.703 116.2H205.61V121.447H209.737ZM208.75 112.461C210.115 112.461 211.073 111.485 211.073 110.134C211.073 108.849 210.108 107.868 208.779 107.868H205.617V112.455H208.75V112.461ZM200.941 103.729H209.525C212.962 103.729 215.691 106.086 215.691 109.322C215.691 111.425 214.668 113.091 212.933 113.715C215.782 114.218 217.272 116.418 217.272 119.15C217.272 122.859 214.48 125.628 210.702 125.628H200.941V103.729Z" fill="black" fill-opacity="0.3"/>
<path d="M227.615 103.729H222.842V125.628H227.615V103.729Z" fill="black" fill-opacity="0.3"/>
<path d="M244.907 103.384C248.406 103.384 251.506 104.953 253.648 107.462L250.394 110.256C249.03 108.717 247.078 107.771 244.907 107.771C241.067 107.771 238.063 110.722 238.063 114.685C238.063 118.642 241.067 121.563 244.907 121.563C247.078 121.563 249.063 120.624 250.423 119.048L253.677 121.842C251.535 124.393 248.406 125.956 244.907 125.956C238.492 125.956 233.286 121.212 233.286 114.685C233.286 108.159 238.492 103.384 244.907 103.384Z" fill="black" fill-opacity="0.3"/>
<path d="M258.699 103.729H273.449V108.128H263.472V112.243H272.797V116.545H263.472V121.223H273.666V125.628H258.699V103.729Z" fill="black" fill-opacity="0.3"/>
</svg>
