<svg width="606" height="134" viewBox="0 0 606 134" fill="none" xmlns="http://www.w3.org/2000/svg">
<path d="M124.412 1.99889H0V20.4937H124.412V1.99889ZM124.412 38.9844H0V57.4792H124.412V38.9844ZM124.412 75.8978H0V94.3926H124.412V75.8978ZM124.412 112.887H0V131.378H124.412V112.887ZM237.287 106.674C246.557 106.674 253.355 99.8204 253.355 90.8915C253.355 82.1829 246.765 75.6855 237.151 75.6855H213.601V106.674H237.287ZM231.519 53.6216C239.346 53.6216 244.91 47.8372 244.91 39.9137C244.91 32.2747 239.346 26.5624 231.727 26.5624H213.533V53.6216H231.519ZM186.618 1.99889H236.053C255.894 1.99889 271.549 15.923 271.549 35.0587C271.549 47.4807 265.644 57.3349 255.69 61.0483C272.098 64.0487 280.682 76.9714 280.682 93.1788C280.682 115.099 264.615 131.378 242.851 131.378H186.618V1.99889ZM340.208 1.99889H312.744V131.306H340.208V1.99889ZM439.836 0C460.021 0 477.875 9.28143 490.165 24.1349L471.418 40.6268C463.595 31.5577 452.33 25.9896 439.836 25.9896C417.728 25.9896 400.423 43.4148 400.423 66.8327C400.423 90.1785 417.728 107.459 439.836 107.459C452.33 107.459 463.731 101.891 471.626 92.606L490.369 109.102C478.08 124.096 460.021 133.377 439.836 133.377C402.899 133.377 372.892 105.388 372.892 66.7606C372.892 28.2048 402.899 0 439.836 0ZM519.207 1.99889H604.142V27.9885H546.739V52.3357H600.433V77.7565H546.739V105.388H605.444V131.378H519.207V1.99889Z" fill="#326295"/>
</svg>
